<svg xmlns="http://www.w3.org/2000/svg" xmlns:xlink="http://www.w3.org/1999/xlink" width="464" zoomAndPan="magnify" viewBox="0 0 348 116.999995" height="156" preserveAspectRatio="xMidYMid meet" version="1.0"><defs><g/><clipPath id="0f568b0324"><rect x="0" width="281" y="0" height="82"/></clipPath></defs><g transform="matrix(1, 0, 0, 1, 33, 17)"><g clip-path="url(#0f568b0324)"><g fill="#000000" fill-opacity="1"><g transform="translate(1.367909, 61.20245)"><g><path d="M 30.03125 -7.328125 C 30.03125 -9.566406 29.640625 -11.5 28.859375 -13.125 C 28.078125 -14.757812 27.023438 -16.1875 25.703125 -17.40625 C 24.378906 -18.625 22.894531 -19.734375 21.25 -20.734375 C 19.601562 -21.734375 17.90625 -22.71875 16.15625 -23.6875 C 14.40625 -24.65625 12.707031 -25.691406 11.0625 -26.796875 C 9.414062 -27.898438 7.929688 -29.179688 6.609375 -30.640625 C 5.285156 -32.097656 4.234375 -33.816406 3.453125 -35.796875 C 2.679688 -37.785156 2.296875 -40.132812 2.296875 -42.84375 C 2.296875 -46.539062 3.140625 -49.578125 4.828125 -51.953125 C 6.523438 -54.328125 8.832031 -56.09375 11.75 -57.25 C 14.664062 -58.40625 17.941406 -58.984375 21.578125 -58.984375 C 23.410156 -58.984375 25.070312 -58.90625 26.5625 -58.75 C 28.050781 -58.601562 29.539062 -58.441406 31.03125 -58.265625 C 32.53125 -58.097656 34.195312 -58.015625 36.03125 -58.015625 C 36.539062 -58.015625 37.09375 -58.085938 37.6875 -58.234375 C 38.28125 -58.390625 38.710938 -58.640625 38.984375 -58.984375 L 39.484375 -58.984375 L 39.484375 -40.515625 L 38.984375 -40.515625 C 38.816406 -41.898438 38.359375 -43.390625 37.609375 -44.984375 C 36.859375 -46.578125 35.898438 -48.132812 34.734375 -49.65625 C 33.566406 -51.1875 32.25 -52.585938 30.78125 -53.859375 C 29.320312 -55.140625 27.804688 -56.148438 26.234375 -56.890625 C 24.660156 -57.640625 23.09375 -58.015625 21.53125 -58.015625 C 19.59375 -58.015625 17.953125 -57.410156 16.609375 -56.203125 C 15.273438 -55.003906 14.609375 -53.300781 14.609375 -51.09375 C 14.609375 -48.957031 15 -47.109375 15.78125 -45.546875 C 16.5625 -43.984375 17.617188 -42.613281 18.953125 -41.4375 C 20.296875 -40.269531 21.789062 -39.203125 23.4375 -38.234375 C 25.082031 -37.273438 26.796875 -36.328125 28.578125 -35.390625 C 30.359375 -34.460938 32.070312 -33.445312 33.71875 -32.34375 C 35.363281 -31.238281 36.851562 -29.984375 38.1875 -28.578125 C 39.53125 -27.171875 40.59375 -25.5 41.375 -23.5625 C 42.15625 -21.625 42.546875 -19.351562 42.546875 -16.75 C 42.546875 -14.238281 42.050781 -11.90625 41.0625 -9.75 C 40.082031 -7.59375 38.703125 -5.71875 36.921875 -4.125 C 35.140625 -2.53125 33.039062 -1.28125 30.625 -0.375 C 28.21875 0.519531 25.59375 0.96875 22.75 0.96875 C 19.96875 0.96875 17.445312 0.753906 15.1875 0.328125 C 12.9375 -0.0976562 10.816406 -0.757812 8.828125 -1.65625 C 6.847656 -2.550781 4.875 -3.710938 2.90625 -5.140625 L 2.90625 -24.375 L 3.515625 -24.375 C 3.515625 -23.664062 3.742188 -22.582031 4.203125 -21.125 C 4.660156 -19.664062 5.3125 -18.019531 6.15625 -16.1875 C 7.007812 -14.351562 8.019531 -12.503906 9.1875 -10.640625 C 10.351562 -8.773438 11.648438 -7.039062 13.078125 -5.4375 C 14.503906 -3.84375 16.019531 -2.554688 17.625 -1.578125 C 19.238281 -0.597656 20.910156 -0.109375 22.640625 -0.109375 C 24.546875 -0.109375 26.03125 -0.425781 27.09375 -1.0625 C 28.164062 -1.707031 28.921875 -2.570312 29.359375 -3.65625 C 29.804688 -4.75 30.03125 -5.972656 30.03125 -7.328125 Z M 30.03125 -7.328125 "/></g></g></g><g fill="#000000" fill-opacity="1"><g transform="translate(46.206022, 61.20245)"><g><path d="M 4.578125 -50.890625 C 4.578125 -52.785156 4.320312 -54.285156 3.8125 -55.390625 C 3.300781 -56.492188 2.453125 -57.195312 1.265625 -57.5 L 1.265625 -58.015625 L 24.171875 -58.015625 L 24.171875 -57.5 C 22.984375 -57.195312 22.132812 -56.492188 21.625 -55.390625 C 21.113281 -54.285156 20.859375 -52.785156 20.859375 -50.890625 L 20.859375 -34.203125 L 29.828125 -34.203125 L 29.828125 -50.890625 C 29.828125 -52.785156 29.570312 -54.285156 29.0625 -55.390625 C 28.550781 -56.492188 27.703125 -57.195312 26.515625 -57.5 L 26.515625 -58.015625 L 49.421875 -58.015625 L 49.421875 -57.5 C 48.234375 -57.195312 47.382812 -56.492188 46.875 -55.390625 C 46.363281 -54.285156 46.109375 -52.785156 46.109375 -50.890625 L 46.109375 -7.125 C 46.109375 -5.257812 46.363281 -3.765625 46.875 -2.640625 C 47.382812 -1.523438 48.234375 -0.816406 49.421875 -0.515625 L 49.421875 0 L 26.515625 0 L 26.515625 -0.515625 C 27.703125 -0.816406 28.550781 -1.523438 29.0625 -2.640625 C 29.570312 -3.765625 29.828125 -5.257812 29.828125 -7.125 L 29.828125 -33.1875 L 20.859375 -33.1875 L 20.859375 -7.125 C 20.859375 -5.257812 21.113281 -3.765625 21.625 -2.640625 C 22.132812 -1.523438 22.984375 -0.816406 24.171875 -0.515625 L 24.171875 0 L 1.265625 0 L 1.265625 -0.515625 C 2.453125 -0.816406 3.300781 -1.523438 3.8125 -2.640625 C 4.320312 -3.765625 4.578125 -5.257812 4.578125 -7.125 Z M 4.578125 -50.890625 "/></g></g></g><g fill="#000000" fill-opacity="1"><g transform="translate(96.897016, 61.20245)"><g><path d="M 0 0 L 0 -0.515625 C 0.644531 -0.515625 1.265625 -0.96875 1.859375 -1.875 C 2.453125 -2.789062 3.007812 -3.960938 3.53125 -5.390625 C 4.0625 -6.816406 4.546875 -8.328125 4.984375 -9.921875 C 5.429688 -11.515625 5.820312 -12.988281 6.15625 -14.34375 C 7.039062 -17.769531 7.847656 -20.929688 8.578125 -23.828125 C 9.304688 -26.734375 10 -29.519531 10.65625 -32.1875 C 11.320312 -34.851562 11.984375 -37.515625 12.640625 -40.171875 C 13.304688 -42.835938 14.007812 -45.628906 14.75 -48.546875 C 15.5 -51.460938 16.300781 -54.617188 17.15625 -58.015625 L 34 -58.015625 C 34.875 -54.617188 35.675781 -51.460938 36.40625 -48.546875 C 37.132812 -45.628906 37.835938 -42.835938 38.515625 -40.171875 C 39.203125 -37.515625 39.882812 -34.851562 40.5625 -32.1875 C 41.238281 -29.519531 41.929688 -26.734375 42.640625 -23.828125 C 43.359375 -20.929688 44.140625 -17.769531 44.984375 -14.34375 C 45.328125 -12.988281 45.71875 -11.515625 46.15625 -9.921875 C 46.59375 -8.328125 47.070312 -6.816406 47.59375 -5.390625 C 48.125 -3.960938 48.6875 -2.789062 49.28125 -1.875 C 49.875 -0.96875 50.492188 -0.515625 51.140625 -0.515625 L 51.140625 0 L 25.59375 0 L 25.59375 -0.515625 C 26.851562 -1.460938 27.660156 -2.832031 28.015625 -4.625 C 28.367188 -6.425781 28.453125 -8.472656 28.265625 -10.765625 C 28.078125 -13.054688 27.726562 -15.390625 27.21875 -17.765625 L 12.875 -17.765625 C 13.21875 -13.828125 14.003906 -10.398438 15.234375 -7.484375 C 16.472656 -4.566406 18.28125 -2.242188 20.65625 -0.515625 L 20.65625 0 Z M 17.609375 -56.28125 C 15.910156 -48.851562 14.609375 -41.984375 13.703125 -35.671875 C 12.804688 -29.359375 12.515625 -23.726562 12.828125 -18.78125 L 27.015625 -18.78125 C 26.710938 -20.101562 26.398438 -21.398438 26.078125 -22.671875 C 25.753906 -23.941406 25.457031 -25.15625 25.1875 -26.3125 C 24.582031 -28.6875 24.039062 -30.804688 23.5625 -32.671875 C 23.082031 -34.535156 22.628906 -36.304688 22.203125 -37.984375 C 21.785156 -39.671875 21.351562 -41.394531 20.90625 -43.15625 C 20.46875 -44.914062 19.984375 -46.847656 19.453125 -48.953125 C 18.929688 -51.054688 18.316406 -53.5 17.609375 -56.28125 Z M 17.609375 -56.28125 "/></g></g></g><g fill="#000000" fill-opacity="1"><g transform="translate(148.046059, 61.20245)"><g><path d="M 0 -58.015625 L 25.546875 -58.015625 L 25.546875 -57.5 C 24.460938 -56.6875 23.722656 -55.484375 23.328125 -53.890625 C 22.941406 -52.296875 22.789062 -50.488281 22.875 -48.46875 C 22.957031 -46.457031 23.1875 -44.398438 23.5625 -42.296875 C 23.9375 -40.191406 24.351562 -38.210938 24.8125 -36.359375 C 25.269531 -34.515625 25.648438 -32.960938 25.953125 -31.703125 C 26.566406 -29.328125 27.101562 -27.210938 27.5625 -25.359375 C 28.019531 -23.515625 28.457031 -21.769531 28.875 -20.125 C 29.300781 -18.476562 29.722656 -16.789062 30.140625 -15.0625 C 30.566406 -13.332031 31.039062 -11.414062 31.5625 -9.3125 C 32.09375 -7.207031 32.71875 -4.78125 33.4375 -2.03125 C 33.90625 -4.070312 34.476562 -6.460938 35.15625 -9.203125 C 35.84375 -11.953125 36.578125 -14.929688 37.359375 -18.140625 C 38.140625 -21.347656 38.898438 -24.628906 39.640625 -27.984375 C 39.035156 -30.359375 38.410156 -32.828125 37.765625 -35.390625 C 37.117188 -37.953125 36.421875 -40.710938 35.671875 -43.671875 C 35.335938 -45.023438 34.945312 -46.5 34.5 -48.09375 C 34.0625 -49.6875 33.578125 -51.195312 33.046875 -52.625 C 32.523438 -54.050781 31.96875 -55.21875 31.375 -56.125 C 30.78125 -57.039062 30.160156 -57.5 29.515625 -57.5 L 29.515625 -58.015625 L 55.0625 -58.015625 L 55.0625 -57.5 C 53.976562 -56.6875 53.238281 -55.484375 52.84375 -53.890625 C 52.457031 -52.296875 52.304688 -50.488281 52.390625 -48.46875 C 52.472656 -46.457031 52.703125 -44.398438 53.078125 -42.296875 C 53.453125 -40.191406 53.867188 -38.210938 54.328125 -36.359375 C 54.785156 -34.515625 55.164062 -32.960938 55.46875 -31.703125 C 56.082031 -29.328125 56.617188 -27.207031 57.078125 -25.34375 C 57.535156 -23.476562 57.96875 -21.703125 58.375 -20.015625 C 58.78125 -18.335938 59.191406 -16.625 59.609375 -14.875 C 60.035156 -13.132812 60.507812 -11.203125 61.03125 -9.078125 C 61.5625 -6.960938 62.1875 -4.53125 62.90625 -1.78125 C 63.34375 -3.675781 63.835938 -5.910156 64.390625 -8.484375 C 64.953125 -11.066406 65.503906 -13.859375 66.046875 -16.859375 C 66.597656 -19.867188 67.039062 -22.957031 67.375 -26.125 C 67.71875 -29.300781 67.890625 -32.441406 67.890625 -35.546875 C 67.890625 -38.648438 67.640625 -41.597656 67.140625 -44.390625 C 66.648438 -47.191406 65.828125 -49.722656 64.671875 -51.984375 C 63.523438 -54.242188 61.96875 -56.082031 60 -57.5 L 60 -58.015625 L 80.65625 -58.015625 L 80.65625 -57.5 C 80.007812 -57.5 79.390625 -57.039062 78.796875 -56.125 C 78.203125 -55.21875 77.644531 -54.050781 77.125 -52.625 C 76.601562 -51.195312 76.117188 -49.6875 75.671875 -48.09375 C 75.234375 -46.5 74.84375 -45.023438 74.5 -43.671875 C 73.65625 -40.273438 72.859375 -37.117188 72.109375 -34.203125 C 71.367188 -31.285156 70.664062 -28.492188 70 -25.828125 C 69.332031 -23.160156 68.664062 -20.492188 68 -17.828125 C 67.34375 -15.171875 66.648438 -12.390625 65.921875 -9.484375 C 65.191406 -6.585938 64.390625 -3.425781 63.515625 0 L 46.671875 0 C 45.859375 -3.320312 45.082031 -6.398438 44.34375 -9.234375 C 43.613281 -12.066406 42.925781 -14.78125 42.28125 -17.375 C 41.644531 -19.96875 41.003906 -22.570312 40.359375 -25.1875 C 39.710938 -22.570312 39.054688 -19.96875 38.390625 -17.375 C 37.734375 -14.78125 37.046875 -12.066406 36.328125 -9.234375 C 35.617188 -6.398438 34.84375 -3.320312 34 0 L 17.15625 0 C 16.300781 -3.394531 15.5 -6.550781 14.75 -9.46875 C 14.007812 -12.382812 13.304688 -15.171875 12.640625 -17.828125 C 11.984375 -20.492188 11.320312 -23.160156 10.65625 -25.828125 C 10 -28.492188 9.304688 -31.285156 8.578125 -34.203125 C 7.847656 -37.117188 7.039062 -40.273438 6.15625 -43.671875 C 5.820312 -45.023438 5.429688 -46.5 4.984375 -48.09375 C 4.546875 -49.6875 4.0625 -51.195312 3.53125 -52.625 C 3.007812 -54.050781 2.453125 -55.21875 1.859375 -56.125 C 1.265625 -57.039062 0.644531 -57.5 0 -57.5 Z M 0 -58.015625 "/></g></g></g><g fill="#000000" fill-opacity="1"><g transform="translate(228.713958, 61.20245)"><g><path d="M 4.578125 -50.890625 C 4.578125 -52.785156 4.320312 -54.285156 3.8125 -55.390625 C 3.300781 -56.492188 2.453125 -57.195312 1.265625 -57.5 L 1.265625 -58.015625 L 24.171875 -58.015625 L 24.171875 -57.5 C 22.984375 -57.195312 22.132812 -56.492188 21.625 -55.390625 C 21.113281 -54.285156 20.859375 -52.785156 20.859375 -50.890625 L 20.859375 -36.75 C 21.398438 -37.25 22.101562 -37.941406 22.96875 -38.828125 C 23.84375 -39.710938 24.757812 -40.6875 25.71875 -41.75 C 26.6875 -42.820312 27.59375 -43.953125 28.4375 -45.140625 C 29.289062 -46.328125 29.988281 -47.488281 30.53125 -48.625 C 31.070312 -49.757812 31.34375 -50.820312 31.34375 -51.8125 C 31.34375 -53.164062 31.164062 -54.210938 30.8125 -54.953125 C 30.457031 -55.703125 29.960938 -56.265625 29.328125 -56.640625 C 28.703125 -57.015625 27.984375 -57.300781 27.171875 -57.5 L 27.171875 -58.015625 L 50.078125 -58.015625 L 50.078125 -57.5 C 48.722656 -57.164062 47.128906 -56.421875 45.296875 -55.265625 C 43.460938 -54.109375 41.507812 -52.71875 39.4375 -51.09375 C 37.375 -49.46875 35.296875 -47.753906 33.203125 -45.953125 C 31.117188 -44.148438 29.125 -42.410156 27.21875 -40.734375 C 25.320312 -39.054688 23.628906 -37.59375 22.140625 -36.34375 C 23.628906 -36.539062 25.003906 -36.640625 26.265625 -36.640625 C 29.046875 -36.640625 31.375 -36.210938 33.25 -35.359375 C 35.132812 -34.515625 36.6875 -33.363281 37.90625 -31.90625 C 39.132812 -30.445312 40.128906 -28.789062 40.890625 -26.9375 C 41.648438 -25.09375 42.265625 -23.148438 42.734375 -21.109375 C 43.210938 -19.078125 43.644531 -17.078125 44.03125 -15.109375 C 44.425781 -13.140625 44.867188 -11.296875 45.359375 -9.578125 C 45.859375 -7.867188 46.515625 -6.40625 47.328125 -5.1875 C 48.140625 -3.96875 49.207031 -3.117188 50.53125 -2.640625 C 50.53125 -2.640625 50.421875 -2.460938 50.203125 -2.109375 C 49.984375 -1.753906 49.59375 -1.332031 49.03125 -0.84375 C 48.46875 -0.351562 47.675781 0.0664062 46.65625 0.421875 C 45.644531 0.785156 44.34375 0.96875 42.75 0.96875 C 39.863281 0.96875 37.460938 0.5625 35.546875 -0.25 C 33.628906 -1.0625 32.082031 -2.164062 30.90625 -3.5625 C 29.738281 -4.957031 28.847656 -6.550781 28.234375 -8.34375 C 27.628906 -10.144531 27.207031 -12.035156 26.96875 -14.015625 C 26.726562 -16.003906 26.566406 -18 26.484375 -20 C 26.398438 -22 26.304688 -23.894531 26.203125 -25.6875 C 26.109375 -27.488281 25.898438 -29.101562 25.578125 -30.53125 C 25.253906 -31.957031 24.726562 -33.078125 24 -33.890625 C 23.269531 -34.703125 22.222656 -35.128906 20.859375 -35.171875 L 20.859375 -7.125 C 20.859375 -5.257812 21.113281 -3.765625 21.625 -2.640625 C 22.132812 -1.523438 22.984375 -0.816406 24.171875 -0.515625 L 24.171875 0 L 1.265625 0 L 1.265625 -0.515625 C 2.453125 -0.816406 3.300781 -1.523438 3.8125 -2.640625 C 4.320312 -3.765625 4.578125 -5.257812 4.578125 -7.125 Z M 4.578125 -50.890625 "/></g></g></g></g></g><g fill="#000000" fill-opacity="1"><g transform="translate(42.88385, 100.049105)"><g><path d="M 2.1875 -13.40625 L 3.59375 -13.40625 L 3.59375 -1.21875 L 11.109375 -1.21875 L 11.109375 0 L 2.1875 0 Z M 2.1875 -13.40625 "/></g></g></g><g fill="#000000" fill-opacity="1"><g transform="translate(59.412012, 100.049105)"><g><path d="M 10.59375 -3.578125 L 3.125 -3.578125 L 1.515625 0 L 0.03125 0 L 6.171875 -13.40625 L 7.5625 -13.40625 L 13.703125 0 L 12.203125 0 Z M 10.078125 -4.734375 L 6.859375 -11.9375 L 3.640625 -4.734375 Z M 10.078125 -4.734375 "/></g></g></g><g fill="#000000" fill-opacity="1"><g transform="translate(78.391179, 100.049105)"><g><path d="M 16.109375 -13.40625 L 16.109375 0 L 14.75 0 L 14.75 -10.734375 L 9.484375 -1.703125 L 8.8125 -1.703125 L 3.546875 -10.671875 L 3.546875 0 L 2.1875 0 L 2.1875 -13.40625 L 3.359375 -13.40625 L 9.171875 -3.46875 L 14.9375 -13.40625 Z M 16.109375 -13.40625 "/></g></g></g><g fill="#000000" fill-opacity="1"><g transform="translate(101.92768, 100.049105)"><g><path d="M 7.203125 -13.40625 C 8.910156 -13.40625 10.25 -12.992188 11.21875 -12.171875 C 12.195312 -11.359375 12.6875 -10.238281 12.6875 -8.8125 C 12.6875 -7.382812 12.195312 -6.265625 11.21875 -5.453125 C 10.25 -4.640625 8.910156 -4.234375 7.203125 -4.234375 L 3.59375 -4.234375 L 3.59375 0 L 2.1875 0 L 2.1875 -13.40625 Z M 7.171875 -5.484375 C 8.492188 -5.484375 9.503906 -5.769531 10.203125 -6.34375 C 10.910156 -6.925781 11.265625 -7.75 11.265625 -8.8125 C 11.265625 -9.894531 10.910156 -10.726562 10.203125 -11.3125 C 9.503906 -11.894531 8.492188 -12.1875 7.171875 -12.1875 L 3.59375 -12.1875 L 3.59375 -5.484375 Z M 7.171875 -5.484375 "/></g></g></g><g fill="#000000" fill-opacity="1"><g transform="translate(120.925992, 100.049105)"><g><path d="M 5.875 0.109375 C 4.882812 0.109375 3.929688 -0.046875 3.015625 -0.359375 C 2.097656 -0.679688 1.394531 -1.101562 0.90625 -1.625 L 1.453125 -2.71875 C 1.941406 -2.238281 2.585938 -1.847656 3.390625 -1.546875 C 4.191406 -1.242188 5.019531 -1.09375 5.875 -1.09375 C 7.082031 -1.09375 7.984375 -1.3125 8.578125 -1.75 C 9.179688 -2.1875 9.484375 -2.757812 9.484375 -3.46875 C 9.484375 -4 9.316406 -4.425781 8.984375 -4.75 C 8.660156 -5.070312 8.265625 -5.316406 7.796875 -5.484375 C 7.328125 -5.660156 6.671875 -5.847656 5.828125 -6.046875 C 4.816406 -6.304688 4.007812 -6.550781 3.40625 -6.78125 C 2.8125 -7.019531 2.296875 -7.378906 1.859375 -7.859375 C 1.429688 -8.347656 1.21875 -9.007812 1.21875 -9.84375 C 1.21875 -10.519531 1.394531 -11.132812 1.75 -11.6875 C 2.113281 -12.25 2.664062 -12.695312 3.40625 -13.03125 C 4.144531 -13.363281 5.066406 -13.53125 6.171875 -13.53125 C 6.929688 -13.53125 7.675781 -13.421875 8.40625 -13.203125 C 9.144531 -12.992188 9.785156 -12.707031 10.328125 -12.34375 L 9.84375 -11.203125 C 9.28125 -11.578125 8.679688 -11.851562 8.046875 -12.03125 C 7.410156 -12.21875 6.785156 -12.3125 6.171875 -12.3125 C 4.992188 -12.3125 4.109375 -12.082031 3.515625 -11.625 C 2.921875 -11.175781 2.625 -10.597656 2.625 -9.890625 C 2.625 -9.347656 2.785156 -8.914062 3.109375 -8.59375 C 3.429688 -8.269531 3.835938 -8.019531 4.328125 -7.84375 C 4.828125 -7.664062 5.492188 -7.476562 6.328125 -7.28125 C 7.304688 -7.039062 8.097656 -6.800781 8.703125 -6.5625 C 9.304688 -6.320312 9.816406 -5.960938 10.234375 -5.484375 C 10.660156 -5.003906 10.875 -4.359375 10.875 -3.546875 C 10.875 -2.867188 10.691406 -2.25 10.328125 -1.6875 C 9.960938 -1.132812 9.40625 -0.695312 8.65625 -0.375 C 7.90625 -0.0507812 6.976562 0.109375 5.875 0.109375 Z M 5.875 0.109375 "/></g></g></g><g fill="#000000" fill-opacity="1"><g transform="translate(137.952018, 100.049105)"><g/></g></g><g fill="#000000" fill-opacity="1"><g transform="translate(148.218626, 100.049105)"><g><path d="M 20.59375 -13.40625 L 16.078125 0 L 14.578125 0 L 10.65625 -11.4375 L 6.703125 0 L 5.234375 0 L 0.703125 -13.40625 L 2.171875 -13.40625 L 6.03125 -1.875 L 10.03125 -13.40625 L 11.359375 -13.40625 L 15.3125 -1.8125 L 19.234375 -13.40625 Z M 20.59375 -13.40625 "/></g></g></g><g fill="#000000" fill-opacity="1"><g transform="translate(174.742286, 100.049105)"><g><path d="M 8.046875 0.109375 C 6.710938 0.109375 5.503906 -0.1875 4.421875 -0.78125 C 3.347656 -1.375 2.507812 -2.1875 1.90625 -3.21875 C 1.300781 -4.25 1 -5.410156 1 -6.703125 C 1 -7.992188 1.300781 -9.15625 1.90625 -10.1875 C 2.507812 -11.226562 3.347656 -12.046875 4.421875 -12.640625 C 5.503906 -13.234375 6.710938 -13.53125 8.046875 -13.53125 C 9.367188 -13.53125 10.5625 -13.234375 11.625 -12.640625 C 12.695312 -12.054688 13.539062 -11.242188 14.15625 -10.203125 C 14.769531 -9.160156 15.078125 -7.992188 15.078125 -6.703125 C 15.078125 -5.410156 14.769531 -4.242188 14.15625 -3.203125 C 13.539062 -2.160156 12.695312 -1.347656 11.625 -0.765625 C 10.5625 -0.179688 9.367188 0.109375 8.046875 0.109375 Z M 8.046875 -1.15625 C 9.109375 -1.15625 10.066406 -1.394531 10.921875 -1.875 C 11.773438 -2.351562 12.441406 -3.015625 12.921875 -3.859375 C 13.410156 -4.710938 13.65625 -5.660156 13.65625 -6.703125 C 13.65625 -7.753906 13.410156 -8.703125 12.921875 -9.546875 C 12.441406 -10.398438 11.773438 -11.066406 10.921875 -11.546875 C 10.066406 -12.023438 9.109375 -12.265625 8.046875 -12.265625 C 6.984375 -12.265625 6.019531 -12.023438 5.15625 -11.546875 C 4.300781 -11.066406 3.625 -10.398438 3.125 -9.546875 C 2.632812 -8.703125 2.390625 -7.753906 2.390625 -6.703125 C 2.390625 -5.660156 2.632812 -4.710938 3.125 -3.859375 C 3.625 -3.015625 4.300781 -2.351562 5.15625 -1.875 C 6.019531 -1.394531 6.984375 -1.15625 8.046875 -1.15625 Z M 8.046875 -1.15625 "/></g></g></g><g fill="#000000" fill-opacity="1"><g transform="translate(196.057569, 100.049105)"><g><path d="M 11.34375 0 L 8.28125 -4.3125 C 7.9375 -4.269531 7.578125 -4.25 7.203125 -4.25 L 3.59375 -4.25 L 3.59375 0 L 2.1875 0 L 2.1875 -13.40625 L 7.203125 -13.40625 C 8.910156 -13.40625 10.25 -12.992188 11.21875 -12.171875 C 12.195312 -11.359375 12.6875 -10.238281 12.6875 -8.8125 C 12.6875 -7.757812 12.421875 -6.875 11.890625 -6.15625 C 11.359375 -5.4375 10.597656 -4.914062 9.609375 -4.59375 L 12.890625 0 Z M 7.171875 -5.453125 C 8.492188 -5.453125 9.503906 -5.742188 10.203125 -6.328125 C 10.910156 -6.921875 11.265625 -7.75 11.265625 -8.8125 C 11.265625 -9.894531 10.910156 -10.726562 10.203125 -11.3125 C 9.503906 -11.894531 8.492188 -12.1875 7.171875 -12.1875 L 3.59375 -12.1875 L 3.59375 -5.453125 Z M 7.171875 -5.453125 "/></g></g></g><g fill="#000000" fill-opacity="1"><g transform="translate(215.151623, 100.049105)"><g><path d="M 6.34375 -6.296875 L 3.59375 -3.53125 L 3.59375 0 L 2.1875 0 L 2.1875 -13.40625 L 3.59375 -13.40625 L 3.59375 -5.3125 L 11.46875 -13.40625 L 13.109375 -13.40625 L 7.296875 -7.34375 L 13.5 0 L 11.8125 0 Z M 6.34375 -6.296875 "/></g></g></g><g fill="#000000" fill-opacity="1"><g transform="translate(234.015902, 100.049105)"><g><path d="M 5.875 0.109375 C 4.882812 0.109375 3.929688 -0.046875 3.015625 -0.359375 C 2.097656 -0.679688 1.394531 -1.101562 0.90625 -1.625 L 1.453125 -2.71875 C 1.941406 -2.238281 2.585938 -1.847656 3.390625 -1.546875 C 4.191406 -1.242188 5.019531 -1.09375 5.875 -1.09375 C 7.082031 -1.09375 7.984375 -1.3125 8.578125 -1.75 C 9.179688 -2.1875 9.484375 -2.757812 9.484375 -3.46875 C 9.484375 -4 9.316406 -4.425781 8.984375 -4.75 C 8.660156 -5.070312 8.265625 -5.316406 7.796875 -5.484375 C 7.328125 -5.660156 6.671875 -5.847656 5.828125 -6.046875 C 4.816406 -6.304688 4.007812 -6.550781 3.40625 -6.78125 C 2.8125 -7.019531 2.296875 -7.378906 1.859375 -7.859375 C 1.429688 -8.347656 1.21875 -9.007812 1.21875 -9.84375 C 1.21875 -10.519531 1.394531 -11.132812 1.75 -11.6875 C 2.113281 -12.25 2.664062 -12.695312 3.40625 -13.03125 C 4.144531 -13.363281 5.066406 -13.53125 6.171875 -13.53125 C 6.929688 -13.53125 7.675781 -13.421875 8.40625 -13.203125 C 9.144531 -12.992188 9.785156 -12.707031 10.328125 -12.34375 L 9.84375 -11.203125 C 9.28125 -11.578125 8.679688 -11.851562 8.046875 -12.03125 C 7.410156 -12.21875 6.785156 -12.3125 6.171875 -12.3125 C 4.992188 -12.3125 4.109375 -12.082031 3.515625 -11.625 C 2.921875 -11.175781 2.625 -10.597656 2.625 -9.890625 C 2.625 -9.347656 2.785156 -8.914062 3.109375 -8.59375 C 3.429688 -8.269531 3.835938 -8.019531 4.328125 -7.84375 C 4.828125 -7.664062 5.492188 -7.476562 6.328125 -7.28125 C 7.304688 -7.039062 8.097656 -6.800781 8.703125 -6.5625 C 9.304688 -6.320312 9.816406 -5.960938 10.234375 -5.484375 C 10.660156 -5.003906 10.875 -4.359375 10.875 -3.546875 C 10.875 -2.867188 10.691406 -2.25 10.328125 -1.6875 C 9.960938 -1.132812 9.40625 -0.695312 8.65625 -0.375 C 7.90625 -0.0507812 6.976562 0.109375 5.875 0.109375 Z M 5.875 0.109375 "/></g></g></g><g fill="#000000" fill-opacity="1"><g transform="translate(251.041928, 100.049105)"><g><path d="M 13.390625 -13.40625 L 13.390625 0 L 11.984375 0 L 11.984375 -6.1875 L 3.59375 -6.1875 L 3.59375 0 L 2.1875 0 L 2.1875 -13.40625 L 3.59375 -13.40625 L 3.59375 -7.4375 L 11.984375 -7.4375 L 11.984375 -13.40625 Z M 13.390625 -13.40625 "/></g></g></g><g fill="#000000" fill-opacity="1"><g transform="translate(271.859347, 100.049105)"><g><path d="M 8.046875 0.109375 C 6.710938 0.109375 5.503906 -0.1875 4.421875 -0.78125 C 3.347656 -1.375 2.507812 -2.1875 1.90625 -3.21875 C 1.300781 -4.25 1 -5.410156 1 -6.703125 C 1 -7.992188 1.300781 -9.15625 1.90625 -10.1875 C 2.507812 -11.226562 3.347656 -12.046875 4.421875 -12.640625 C 5.503906 -13.234375 6.710938 -13.53125 8.046875 -13.53125 C 9.367188 -13.53125 10.5625 -13.234375 11.625 -12.640625 C 12.695312 -12.054688 13.539062 -11.242188 14.15625 -10.203125 C 14.769531 -9.160156 15.078125 -7.992188 15.078125 -6.703125 C 15.078125 -5.410156 14.769531 -4.242188 14.15625 -3.203125 C 13.539062 -2.160156 12.695312 -1.347656 11.625 -0.765625 C 10.5625 -0.179688 9.367188 0.109375 8.046875 0.109375 Z M 8.046875 -1.15625 C 9.109375 -1.15625 10.066406 -1.394531 10.921875 -1.875 C 11.773438 -2.351562 12.441406 -3.015625 12.921875 -3.859375 C 13.410156 -4.710938 13.65625 -5.660156 13.65625 -6.703125 C 13.65625 -7.753906 13.410156 -8.703125 12.921875 -9.546875 C 12.441406 -10.398438 11.773438 -11.066406 10.921875 -11.546875 C 10.066406 -12.023438 9.109375 -12.265625 8.046875 -12.265625 C 6.984375 -12.265625 6.019531 -12.023438 5.15625 -11.546875 C 4.300781 -11.066406 3.625 -10.398438 3.125 -9.546875 C 2.632812 -8.703125 2.390625 -7.753906 2.390625 -6.703125 C 2.390625 -5.660156 2.632812 -4.710938 3.125 -3.859375 C 3.625 -3.015625 4.300781 -2.351562 5.15625 -1.875 C 6.019531 -1.394531 6.984375 -1.15625 8.046875 -1.15625 Z M 8.046875 -1.15625 "/></g></g></g><g fill="#000000" fill-opacity="1"><g transform="translate(293.17463, 100.049105)"><g><path d="M 7.203125 -13.40625 C 8.910156 -13.40625 10.25 -12.992188 11.21875 -12.171875 C 12.195312 -11.359375 12.6875 -10.238281 12.6875 -8.8125 C 12.6875 -7.382812 12.195312 -6.265625 11.21875 -5.453125 C 10.25 -4.640625 8.910156 -4.234375 7.203125 -4.234375 L 3.59375 -4.234375 L 3.59375 0 L 2.1875 0 L 2.1875 -13.40625 Z M 7.171875 -5.484375 C 8.492188 -5.484375 9.503906 -5.769531 10.203125 -6.34375 C 10.910156 -6.925781 11.265625 -7.75 11.265625 -8.8125 C 11.265625 -9.894531 10.910156 -10.726562 10.203125 -11.3125 C 9.503906 -11.894531 8.492188 -12.1875 7.171875 -12.1875 L 3.59375 -12.1875 L 3.59375 -5.484375 Z M 7.171875 -5.484375 "/></g></g></g></svg>